HIERARCHY
ROOT ZeroOut_JNT
{
  OFFSET 0 0 0
  CHANNELS 6 Xposition Yposition Zposition Zrotation Xrotation Yrotation
  JOINT SpineFinal_1_JNT
  {
    OFFSET 1.09941 64.002 -42.9966
    CHANNELS 6 Xposition Yposition Zposition Zrotation Xrotation Yrotation
    JOINT l_legIKClavicle_Root_JNT
    {
      OFFSET -2.64853 -0.810668 10.7015
      CHANNELS 6 Xposition Yposition Zposition Zrotation Xrotation Yrotation
      JOINT l_legBlendRoot_JNT
      {
        OFFSET 16.1374 0 0
        CHANNELS 6 Xposition Yposition Zposition Zrotation Xrotation Yrotation
        JOINT l_legBlendMiddle_JNT
        {
          OFFSET 27.0969 0 0
          CHANNELS 6 Xposition Yposition Zposition Zrotation Xrotation Yrotation
          JOINT l_legBlendEnd_JNT
          {
            OFFSET 24.8414 0 0
            CHANNELS 6 Xposition Yposition Zposition Zrotation Xrotation Yrotation
            JOINT l_legBlendTip_JNT
            {
              OFFSET 6.77858 0 0
              CHANNELS 6 Xposition Yposition Zposition Zrotation Xrotation Yrotation
              End Site
              {
                OFFSET 0 0 0
              }
            }
          }
        }
      }
    }
    JOINT SpineFinal_2_JNT
    {
      OFFSET -19.9136 -1.49144 0.993757
      CHANNELS 6 Xposition Yposition Zposition Zrotation Xrotation Yrotation
      JOINT SpineFinal_3_JNT
      {
        OFFSET -19.2001 3.24201 2.0363
        CHANNELS 6 Xposition Yposition Zposition Zrotation Xrotation Yrotation
        JOINT SpineFinal_4_JNT
        {
          OFFSET -19.1272 6.18264 0.824529
          CHANNELS 6 Xposition Yposition Zposition Zrotation Xrotation Yrotation
          JOINT SpineFinal_5_JNT
          {
            OFFSET -18.1852 7.21578 -1.20318
            CHANNELS 6 Xposition Yposition Zposition Zrotation Xrotation Yrotation
            JOINT SpineFinal_6_JNT
            {
              OFFSET -19.144 8.35871 0
              CHANNELS 6 Xposition Yposition Zposition Zrotation Xrotation Yrotation
              JOINT SpineFinal_7_JNT
              {
                OFFSET -16.3943 7.24542 0
                CHANNELS 6 Xposition Yposition Zposition Zrotation Xrotation Yrotation
                JOINT SpineFinal_8_JNT
                {
                  OFFSET -19.3877 2.40349 0
                  CHANNELS 6 Xposition Yposition Zposition Zrotation Xrotation Yrotation
                  JOINT head_JNT
                  {
                    OFFSET -13.796 -11.6756 0
                    CHANNELS 6 Xposition Yposition Zposition Zrotation Xrotation Yrotation
                    JOINT l_hornRoot_JNT
                    {
                      OFFSET -15.825 14.8229 15.3879
                      CHANNELS 6 Xposition Yposition Zposition Zrotation Xrotation Yrotation
                      JOINT l_hornMid_JNT
                      {
                        OFFSET 6.55118 0 0
                        CHANNELS 6 Xposition Yposition Zposition Zrotation Xrotation Yrotation
                        JOINT l_hornEnd_JNT
                        {
                          OFFSET 6.73503 0 0
                          CHANNELS 6 Xposition Yposition Zposition Zrotation Xrotation Yrotation
                          End Site
                          {
                            OFFSET 0 0 0
                          }
                        }
                      }
                    }
                    JOINT headJend_JNT
                    {
                      OFFSET 1.34858 -27.5886 0
                      CHANNELS 6 Xposition Yposition Zposition Zrotation Xrotation Yrotation
                      End Site
                      {
                        OFFSET -0.885571 -8.63314 -0.143146
                      }
                    }
                    JOINT r_hornRoot_JNT
                    {
                      OFFSET -15.825 14.8229 -15.3879
                      CHANNELS 6 Xposition Yposition Zposition Zrotation Xrotation Yrotation
                      JOINT r_hornMid_JNT
                      {
                        OFFSET -2.40814 5.46468 -2.69372
                        CHANNELS 6 Xposition Yposition Zposition Zrotation Xrotation Yrotation
                        JOINT r_hornEnd_JNT
                        {
                          OFFSET -2.40922 6.0083 -1.85921
                          CHANNELS 6 Xposition Yposition Zposition Zrotation Xrotation Yrotation
                          End Site
                          {
                            OFFSET 0 0 0
                          }
                        }
                      }
                    }
                    JOINT m_upLip_JNT
                    {
                      OFFSET 4.72477 -9.87974 0
                      CHANNELS 6 Xposition Yposition Zposition Zrotation Xrotation Yrotation
                      JOINT l_lipUpRoot_JNT
                      {
                        OFFSET 2.68891 -0.690234 4.02874
                        CHANNELS 6 Xposition Yposition Zposition Zrotation Xrotation Yrotation
                        JOINT l_lipUpEnd_JNT
                        {
                          OFFSET 0 0 -14.9226
                          CHANNELS 6 Xposition Yposition Zposition Zrotation Xrotation Yrotation
                          End Site
                          {
                            OFFSET 0 0 0
                          }
                        }
                      }
                      JOINT m_upLipRoot_JNT
                      {
                        OFFSET 0 0 3.94939
                        CHANNELS 6 Xposition Yposition Zposition Zrotation Xrotation Yrotation
                        JOINT m_upLipEnd_JNT
                        {
                          OFFSET 0 0 15.0019
                          CHANNELS 6 Xposition Yposition Zposition Zrotation Xrotation Yrotation
                          End Site
                          {
                            OFFSET 0 0 0
                          }
                        }
                      }
                      JOINT r_lipUpRoot_JNT
                      {
                        OFFSET -2.689 -0.690236 4.02875
                        CHANNELS 6 Xposition Yposition Zposition Zrotation Xrotation Yrotation
                        JOINT r_lipUpEnd_JNT
                        {
                          OFFSET 9.35075e-005 -0.000392738 14.9226
                          CHANNELS 6 Xposition Yposition Zposition Zrotation Xrotation Yrotation
                          End Site
                          {
                            OFFSET 0 0 0
                          }
                        }
                      }
                    }
                    JOINT m_DnLip_JNT
                    {
                      OFFSET 6.0207 -9.81639 0
                      CHANNELS 6 Xposition Yposition Zposition Zrotation Xrotation Yrotation
                      JOINT l_lipDn_JNT
                      {
                        OFFSET 2.71301 -0.162748 3.99146
                        CHANNELS 6 Xposition Yposition Zposition Zrotation Xrotation Yrotation
                        JOINT l_lipEnd_JNT
                        {
                          OFFSET 0 0 -14.9599
                          CHANNELS 6 Xposition Yposition Zposition Zrotation Xrotation Yrotation
                          End Site
                          {
                            OFFSET 0 0 0
                          }
                        }
                      }
                      JOINT m_dnLip_JNT
                      {
                        OFFSET 0 -0.0431035 3.99141
                        CHANNELS 6 Xposition Yposition Zposition Zrotation Xrotation Yrotation
                        JOINT m_dnLipEnd_JNT
                        {
                          OFFSET 0 0 14.9599
                          CHANNELS 6 Xposition Yposition Zposition Zrotation Xrotation Yrotation
                          End Site
                          {
                            OFFSET 0 0 0
                          }
                        }
                      }
                      JOINT r_lipDn_JNT
                      {
                        OFFSET -2.71301 -0.162761 3.99141
                        CHANNELS 6 Xposition Yposition Zposition Zrotation Xrotation Yrotation
                        JOINT r_lipDnEnd_JNT
                        {
                          OFFSET 0 0 14.9599
                          CHANNELS 6 Xposition Yposition Zposition Zrotation Xrotation Yrotation
                          End Site
                          {
                            OFFSET 0 0 0
                          }
                        }
                      }
                    }
                    JOINT l_lid_JNT
                    {
                      OFFSET -7.85698 -6.72885 9.63956
                      CHANNELS 6 Xposition Yposition Zposition Zrotation Xrotation Yrotation
                      End Site
                      {
                        OFFSET 0 0 0
                      }
                    }
                    JOINT r_lid_JNT
                    {
                      OFFSET -7.85684 -6.72882 -9.63956
                      CHANNELS 6 Xposition Yposition Zposition Zrotation Xrotation Yrotation
                      End Site
                      {
                        OFFSET 0 0 0
                      }
                    }
                  }
                }
              }
            }
            JOINT l_FwClavicleRoot_JNT
            {
              OFFSET -3.21476 -4.3187 6.08742
              CHANNELS 6 Xposition Yposition Zposition Zrotation Xrotation Yrotation
              JOINT l_FwLegBlendRoot_JNT
              {
                OFFSET 21.051 0 0
                CHANNELS 6 Xposition Yposition Zposition Zrotation Xrotation Yrotation
                JOINT l_FwLegBlendMiddle_JNT
                {
                  OFFSET 33.1145 0 0
                  CHANNELS 6 Xposition Yposition Zposition Zrotation Xrotation Yrotation
                  JOINT l_FwLegBlendTip_JNT
                  {
                    OFFSET 29.9221 0 0
                    CHANNELS 6 Xposition Yposition Zposition Zrotation Xrotation Yrotation
                    JOINT l_FwLegBlendEnd_JNT
                    {
                      OFFSET 9.62649 0 0
                      CHANNELS 6 Xposition Yposition Zposition Zrotation Xrotation Yrotation
                      End Site
                      {
                        OFFSET 0 0 0
                      }
                    }
                  }
                }
              }
            }
            JOINT r_FwClavicleRoot_JNT
            {
              OFFSET 1.57499 -4.64749 -6.47788
              CHANNELS 6 Xposition Yposition Zposition Zrotation Xrotation Yrotation
              JOINT r_FwLegBlendRoot_JNT
              {
                OFFSET 1.1653 -12.7157 -16.7361
                CHANNELS 6 Xposition Yposition Zposition Zrotation Xrotation Yrotation
                JOINT r_FwLegBlendMiddle_JNT
                {
                  OFFSET 16.2308 -5.97551 28.2387
                  CHANNELS 6 Xposition Yposition Zposition Zrotation Xrotation Yrotation
                  JOINT r_FwLegBlendTip_JNT
                  {
                    OFFSET 26.7017 -9.19239 -9.89204
                    CHANNELS 6 Xposition Yposition Zposition Zrotation Xrotation Yrotation
                    JOINT r_FwLegBlendEnd_JNT
                    {
                      OFFSET 4.44874 -7.74942 3.58114
                      CHANNELS 6 Xposition Yposition Zposition Zrotation Xrotation Yrotation
                      End Site
                      {
                        OFFSET 0 0 0
                      }
                    }
                  }
                }
              }
            }
          }
        }
      }
    }
    JOINT r_legIKClavicle_Root_JNT
    {
      OFFSET -4.94604 1.23737 -11.8565
      CHANNELS 6 Xposition Yposition Zposition Zrotation Xrotation Yrotation
      JOINT r_legBlendRoot_JNT
      {
        OFFSET 13.2848 -5.74129 -7.13912
        CHANNELS 6 Xposition Yposition Zposition Zrotation Xrotation Yrotation
        JOINT r_legBlendMiddle_JNT
        {
          OFFSET 14.815 16.9375 15.0957
          CHANNELS 6 Xposition Yposition Zposition Zrotation Xrotation Yrotation
          JOINT r_legBlendEnd_JNT
          {
            OFFSET 23.6904 -6.58016 -3.54465
            CHANNELS 6 Xposition Yposition Zposition Zrotation Xrotation Yrotation
            JOINT r_legBlendTip_JNT
            {
              OFFSET 1.47758 -6.16068 -2.41079
              CHANNELS 6 Xposition Yposition Zposition Zrotation Xrotation Yrotation
              End Site
              {
                OFFSET 0 0 0
              }
            }
          }
        }
      }
    }
    JOINT tailRoot_JNT
    {
      OFFSET 2.82533 14.5514 0
      CHANNELS 6 Xposition Yposition Zposition Zrotation Xrotation Yrotation
      JOINT tailMid_JNT
      {
        OFFSET 7.87756 0 0
        CHANNELS 6 Xposition Yposition Zposition Zrotation Xrotation Yrotation
        JOINT tailEnd_JNT
        {
          OFFSET 6.52588 0 0
          CHANNELS 6 Xposition Yposition Zposition Zrotation Xrotation Yrotation
          End Site
          {
            OFFSET 0 0 0
          }
        }
      }
    }
    JOINT l_shoulderBkRoot_JNT
    {
      OFFSET -9.30511 7.998 11.2048
      CHANNELS 6 Xposition Yposition Zposition Zrotation Xrotation Yrotation
      JOINT l_shoulderBkMid_JNT
      {
        OFFSET 0 2.004 0
        CHANNELS 6 Xposition Yposition Zposition Zrotation Xrotation Yrotation
        End Site
        {
          OFFSET 0 0 0
        }
      }
    }
    JOINT r_shoulderBkRoot_JNT
    {
      OFFSET -9.30514 7.99801 -11.2048
      CHANNELS 6 Xposition Yposition Zposition Zrotation Xrotation Yrotation
      JOINT r_shoulderBkMid_JNT
      {
        OFFSET 0 -3.9713 0
        CHANNELS 6 Xposition Yposition Zposition Zrotation Xrotation Yrotation
        End Site
        {
          OFFSET 0 0 0
        }
      }
    }
  }
}
MOTION
Frames:	3
Frame Time:	0.0416667
0 0 0 0 0 -0 -1.8726e-015 38.8039 -75.5314 -2.0266e-016 -19.0227 90 -6.00053 2.10775 9.59625 -78.4316 61.2999 -67.9538 16.1374 -1.41174e-006 6.5202e-007 -24.9088 14.6777 112.514 27.0969 -1.06581e-014 -4.26326e-014 -1.39895e-014 7.83631e-016 -96.4122 24.8414 1.06581e-014 4.61853e-014 -3.08148 -3.5701 2.77059 6.77858 -7.10543e-015 -1.42109e-014 6.06643e-021 -3.03321e-021 -0 -19.5397 4.47872e-007 -1.23603e-015 27.619 -4.41391e-032 -0 -19.4076 1.98539 -3.88578e-015 -5.84101 7.83468e-031 -2.2414e-016 -18.5401 5.80111 5.88417e-015 -17.3747 -2.54444e-014 -1.16499e-014 -18.018 7.25644 -4.85916e-015 9.03597 -4.05791e-015 -6.76091e-015 -19.144 8.35871 -2.60029e-014 -3.83935 0.0346331 -1.05612e-014 -16.3943 7.24542 2.63262e-014 -33.4574 8.3839e-015 -1.14449e-014 -19.3877 2.40349 -3.70051e-014 -13.6435 -3.00074 -1.14715e-014 -13.796 -11.6756 2.81997e-014 -26.3238 -7.95139e-016 -1.49089e-016 -15.825 14.8229 15.3879 101.773 2.59666 -24.2782 6.55118 1.7053e-013 1.77636e-015 1.66294 -7.5369 2.27757 6.73503 4.26326e-014 -4.61853e-014 3.18055e-015 0 -3.18055e-015 1.34858 -27.5886 -1.33227e-014 92.7985 1.30204e-014 -1.63003e-014 -15.825 14.8229 -15.3879 -10.8666 1.9327 -4.56394 -2.40814 5.46468 -2.69372 1.59378 -7.57032 2.74284 -2.40922 6.0083 -1.85921 -1.37935e-032 1.59028e-015 4.96962e-016 4.72477 -9.87974 -8.88178e-016 92.7985 3.50417e-015 -90 2.68891 -0.690234 4.02874 -180 7.01671e-015 -180 -4.44089e-016 0 -14.9226 -1.49089e-016 1.59028e-015 -0 4.44089e-016 0 3.94939 1.98785e-016 3.18055e-015 -3.97569e-016 8.88178e-016 -1.42109e-014 15.0019 0 3.18055e-015 -0 -2.689 -0.690236 4.02875 1.98785e-016 3.18055e-015 -3.97569e-016 9.35075e-005 -0.000392738 14.9226 0 3.18055e-015 -0 6.0207 -9.81639 -8.88178e-016 92.7985 3.50417e-015 -90 2.71301 -0.162748 3.99146 -180 7.01671e-015 -180 -4.44089e-016 -1.42109e-014 -14.9599 -1.49089e-016 1.59028e-015 -0 -1.77636e-015 -0.0431035 3.99141 1.98785e-016 3.18055e-015 -3.97569e-016 0 1.42109e-014 14.9599 0 3.18055e-015 -0 -2.71301 -0.162761 3.99141 1.98785e-016 3.18055e-015 -3.97569e-016 0 -1.42109e-014 14.9599 0 3.18055e-015 -0 -7.85698 -6.72885 9.63956 34.106 19.9417 85.9622 -7.85684 -6.72882 -9.63956 -145.894 19.9417 85.9622 -5.6696 -2.69925 6.72563 0.124422 26.2605 -112.654 21.051 7.05434e-007 -1.31106e-006 31.8026 -9.87257 110.524 33.1145 8.3753e-007 -2.8019e-007 68.5185 7.01671e-015 180 29.9221 3.01981e-014 2.13163e-014 -97.0094 -4.61375e-015 -1.56164e-015 9.62649 2.13163e-014 7.10543e-015 29.859 -1.7467e-015 90 -5.09973 -2.99424 -6.72563 -72.6217 9.37258 -17.9831 1.1653 -12.7157 -16.7361 105.483 -50.4849 102.644 16.2308 -5.97551 28.2387 153.903 18.0941 108.361 26.7017 -9.19239 -9.89204 -29.0753 59.6241 101.641 4.44874 -7.74942 3.58114 29.859 -1.7467e-015 90 -2.37256 -1.02021 -9.59625 -78.5185 -9.24999 4.74057 13.2848 -5.74129 -7.13912 54.3889 1.58877 35.2742 14.815 16.9375 15.0957 -58.4426 40.9667 -30.4427 23.6904 -6.58016 -3.54465 26.9946 3.8853 -50.919 1.47758 -6.16068 -2.41079 3.97569e-016 7.95139e-016 -1.59028e-015 2.82533 14.5514 3.15027e-015 22.3197 -1.55521e-015 -4.98459e-015 7.87756 -2.84217e-014 -3.14143e-015 50.2846 -1.03436e-015 1.5218e-015 6.52588 7.10543e-015 3.27109e-015 6.36111e-015 2.11868e-030 -7.06225e-031 -9.30511 7.998 11.2048 -6.8505 -4.18474e-016 -90 0 5.20254 0 -1.76556e-031 0 -0 -9.30514 7.99801 -11.2048 173.149 4.18474e-016 -90 0 -1.5808 0 -4.74495e-031 3.18055e-015 -4.41391e-032 
0 0 0 0 0 -0 -3.86054e-015 39.542 -77.3745 -3.06793e-016 -23.1344 90 -4.38182 0.208615 9.59625 -59.8949 61.2356 -67.7374 16.1374 -1.36425e-006 1.04486e-006 -25.3345 12.5139 121.679 27.0969 1.77636e-014 -5.68434e-014 4.35311e-016 2.43298e-015 -110.288 24.8414 3.55271e-015 1.42109e-014 -1.98327 -1.93778 -6.68566 6.77858 -3.55271e-015 -1.06581e-014 -4.96962e-017 -6.21202e-017 -3.18055e-015 -19.5397 4.47872e-007 7.51911e-016 27.619 1.10348e-031 3.53113e-031 -19.4076 1.98539 -3.88578e-015 -5.84101 6.62086e-031 -2.2414e-016 -18.5401 5.80111 5.88418e-015 -17.3747 -2.54444e-014 -1.16499e-014 -18.018 7.25644 -4.85917e-015 7.7712 -3.90757e-015 -6.84865e-015 -19.144 8.35871 -2.17847e-014 -4.22187 0.0346331 -1.05851e-014 -16.3943 7.24542 2.91225e-014 -35.0506 8.70226e-015 -1.12104e-014 -19.3877 2.40349 -3.43406e-014 -12.5608 -2.99854 -0.0677817 -13.796 -11.6756 2.77556e-014 -25.6836 7.95139e-016 5.59082e-016 -15.825 14.8229 15.3879 101.773 2.59666 -24.2782 6.55118 1.98952e-013 8.88178e-015 1.66294 -7.5369 2.27757 6.73503 2.84217e-014 -5.32907e-014 1.59028e-015 -7.95139e-016 3.18055e-015 1.34858 -27.5886 -1.28786e-014 92.7985 1.27222e-014 -1.66979e-014 -15.825 14.8229 -15.3879 -10.8666 1.9327 -4.56394 -2.40814 5.46468 -2.69372 1.59378 -7.57032 2.74284 -2.40922 6.0083 -1.85921 1.59028e-015 1.59028e-015 3.97569e-016 4.72477 -9.87974 -8.88178e-016 92.7985 3.50417e-015 -90 2.68891 -0.690234 4.02874 -180 7.01671e-015 -180 0 0 -14.9226 -2.48481e-017 2.38542e-015 3.97569e-016 -8.88178e-016 0 3.94939 7.45443e-017 1.59028e-015 -0 -8.88178e-016 0 15.0019 9.93923e-017 2.38542e-015 -3.97569e-016 -2.689 -0.690236 4.02875 7.45443e-017 1.59028e-015 -0 9.35075e-005 -0.000392738 14.9226 9.93923e-017 2.38542e-015 -3.97569e-016 6.0207 -9.81639 -8.88178e-016 92.7985 3.50417e-015 -90 2.71301 -0.162748 3.99146 -180 7.01671e-015 -180 -1.33227e-015 1.42109e-014 -14.9599 -2.48481e-017 2.38542e-015 3.97569e-016 -4.44089e-016 -0.0431035 3.99141 7.45443e-017 1.59028e-015 -0 -4.44089e-016 -1.42109e-014 14.9599 9.93923e-017 2.38542e-015 -3.97569e-016 -2.71301 -0.162761 3.99141 7.45443e-017 1.59028e-015 -0 0 -1.42109e-014 14.9599 9.93923e-017 2.38542e-015 -3.97569e-016 -7.85698 -6.72885 9.63956 34.106 19.9417 85.9622 -7.85684 -6.72882 -9.63956 -145.894 19.9417 85.9622 -5.8019 -3.03638 6.72563 3.88581 26.2589 -112.652 21.051 5.04759e-007 -1.07628e-006 34.6123 -16.9444 111.341 33.1145 8.3753e-007 -2.8019e-007 62.4839 -7.01671e-015 180 29.9221 3.55271e-014 3.55271e-015 -88.7251 -4.79568e-015 -8.44835e-016 9.62649 2.13163e-014 1.06581e-014 29.859 -1.7467e-015 90 -6.20064 -2.84118 -6.72563 -73.4971 9.37427 -17.9834 1.1653 -12.7157 -16.7361 96.7334 -52.1127 111.372 16.2308 -5.97551 28.2387 152.263 17.8913 113.62 26.7017 -9.19239 -9.89204 -32.3208 37.8459 104.733 4.44874 -7.74942 3.58114 29.859 -1.7467e-015 90 -0.480716 -1.53936 -9.59625 -64.1351 -9.24968 4.72696 13.2848 -5.74129 -7.13912 54.2883 1.57147 35.2168 14.815 16.9375 15.0957 -49.6274 37.8107 -36.0407 23.6904 -6.58016 -3.54465 8.80473 1.32972 -50.1207 1.47758 -6.16068 -2.41079 0 0 -7.45443e-016 2.82533 14.5514 4.24947e-015 19.144 -1.27638e-015 -5.06207e-015 7.87756 -2.13163e-014 -5.29266e-015 47.5822 -1.10482e-015 1.47112e-015 6.52588 3.55271e-014 3.22433e-015 3.58256 -1.41245e-030 7.06225e-031 -9.30511 7.998 11.2048 -6.8505 -4.18474e-016 -90 0 3.33891 7.10543e-015 1.76556e-031 0 1.76556e-031 -9.30514 7.99801 -11.2048 173.149 4.18474e-016 -90 0 -0.118158 7.10543e-015 -8.82781e-032 0 2.20695e-032 
0 0 0 0 0 -0 -1.78973e-014 42.3822 -78.8865 -4.50701e-016 -27.6055 90 -0.711978 -1.50314 9.59625 -29.8032 61.1887 -68.2149 16.1374 -1.14881e-006 1.55259e-006 -26.6224 9.93816 115.753 27.0969 3.55271e-015 -2.84217e-014 -1.3252e-014 3.21794e-015 -117.298 24.8414 0 1.42109e-014 -0.184687 -0.138392 -18.8481 6.77858 -7.10543e-015 -1.42109e-014 -9.93923e-017 9.93923e-017 3.18055e-015 -19.5397 4.47872e-007 1.47887e-014 27.619 1.17244e-031 -3.53113e-031 -19.4076 1.98539 -3.88578e-015 -5.84101 -4.19321e-031 -2.2414e-016 -18.5401 5.80111 5.88418e-015 -17.3747 -2.54444e-014 -1.16499e-014 -18.018 7.25644 -4.85917e-015 4.56501 -3.51839e-015 -7.05649e-015 -19.144 8.35871 -2.59674e-014 -5.397 0.0346331 -1.06601e-014 -16.3943 7.24542 2.8165e-014 -36.0201 8.89872e-015 -1.10543e-014 -19.3877 2.40349 -3.51594e-014 -10.2236 -2.99261 -0.0953737 -13.796 -11.6756 2.79776e-014 -24.0718 3.97569e-016 -1.49089e-016 -15.825 14.8229 15.3879 101.773 2.59666 -24.2782 6.55118 8.52651e-014 1.42109e-014 1.66294 -7.5369 2.27757 6.73503 2.84217e-014 -4.61853e-014 -7.95139e-016 3.97569e-016 -0 1.34858 -27.5886 -1.39888e-014 92.7985 1.30949e-014 -1.63003e-014 -15.825 14.8229 -15.3879 -10.8666 1.9327 -4.56394 -2.40814 5.46468 -2.69372 1.59378 -7.57032 2.74284 -2.40922 6.0083 -1.85921 -1.59028e-015 -1.59028e-015 -0 4.72477 -9.87974 1.11022e-015 92.7985 3.50417e-015 -90 2.68891 -0.690234 4.02874 180 7.01671e-015 180 0 0 -14.9226 2.60905e-016 -1.98785e-016 -1.19271e-015 -4.44089e-016 1.42109e-014 3.94939 -4.22417e-016 -1.98785e-016 3.97569e-016 -4.44089e-016 0 15.0019 -2.11209e-016 -1.98785e-016 3.97569e-016 -2.689 -0.690236 4.02875 -4.22417e-016 -1.98785e-016 3.97569e-016 9.35075e-005 -0.000392738 14.9226 -2.11209e-016 -1.98785e-016 3.97569e-016 6.0207 -9.81639 6.66134e-016 92.7495 3.50432e-015 -90 2.71301 -0.162748 3.99146 180 7.01671e-015 180 4.44089e-016 0 -14.9599 -2.98177e-016 -1.98785e-016 -0 0 -0.0431035 3.99141 -2.23633e-016 1.98785e-016 3.97569e-016 0 -1.42109e-014 14.9599 1.61513e-016 -1.98785e-016 3.97569e-016 -2.71301 -0.162761 3.99141 -2.23633e-016 1.98785e-016 3.97569e-016 8.88178e-016 -1.42109e-014 14.9599 1.61513e-016 -1.98785e-016 3.97569e-016 -7.85698 -6.72885 9.63956 34.106 19.9417 85.9622 -7.85684 -6.72882 -9.63956 -145.894 19.9417 85.9622 -5.92165 -3.58998 6.72563 7.98796 26.2626 -112.664 21.051 2.19249e-007 -6.25995e-007 39.395 -28.0018 112.96 33.1145 8.3753e-007 -2.8019e-007 61.0883 -7.01671e-015 180 29.9221 2.13163e-014 1.77636e-014 -65.967 -4.74598e-015 1.02498e-015 9.62649 2.13163e-014 1.06581e-014 29.859 -1.7467e-015 90 -7.59438 -2.85248 -6.72563 -73.9247 9.32927 -17.9786 1.1653 -12.7157 -16.7361 84.1219 -55.8885 123.827 16.2308 -5.97551 28.2387 146.699 14.4515 133.271 26.7017 -9.19239 -9.89204 -15.6653 31.0478 68.4496 4.44874 -7.74942 3.58114 29.859 -1.7467e-015 90 2.32376 -1.41876 -9.59625 -42.8398 -9.27209 4.75859 13.2848 -5.74129 -7.13912 40.2378 3.98165 35.778 14.815 16.9375 15.0957 -36.2965 31.2071 -43.751 23.6904 -6.58016 -3.54465 -5.35474 -0.807019 -50.0236 1.47758 -6.16068 -2.41079 7.95139e-016 7.95139e-016 3.67752e-015 2.82533 14.5514 2.2079e-014 11.9518 -6.32496e-016 -5.18159e-015 7.87756 -1.42109e-014 -9.14588e-015 41.1741 -1.26206e-015 1.33854e-015 6.52588 2.13163e-014 6.79334e-015 11.4642 7.06225e-031 -0 -9.30511 7.998 11.2048 -6.8505 -4.18474e-016 -90 0 0.292215 0 -8.82781e-032 -3.18055e-015 -0 -9.30514 7.99801 -11.2048 173.149 4.18474e-016 -90 0 0 0 5.07599e-031 3.18055e-015 1.76556e-031 
